<?xml version="1.0" encoding="UTF-8"?>
<svg id="Layer_1" data-name="Layer 1" xmlns="http://www.w3.org/2000/svg" viewBox="0 0 871.7 110.79">
  <defs>
    <style>
      .cls-1 {
        fill: red;
      }
    </style>
  </defs>
  <g>
    <path d="m41.06,18.79c7.15,0,13.32,1.4,18.52,4.19,5.19,2.79,9.24,6.9,12.15,12.32,2.9,5.42,4.36,12.09,4.36,20.02v51.11h-5.53v-50.77c0-10.39-2.63-18.27-7.88-23.63-5.25-5.36-12.63-8.04-22.12-8.04-7.26,0-13.52,1.45-18.77,4.36-5.25,2.91-9.27,7.04-12.07,12.4-2.79,5.36-4.19,11.62-4.19,18.77v46.92H0V19.46h5.36v24.47l-.67-1.51c2.68-7.26,7.12-13.01,13.32-17.26,6.2-4.24,13.88-6.37,23.04-6.37Z"/>
    <path d="m146.46,106.93c-8.6,0-16.2-1.87-22.79-5.61-6.59-3.74-11.79-8.97-15.58-15.67-3.8-6.7-5.7-14.3-5.7-22.79s1.76-16.2,5.28-22.79c3.52-6.59,8.38-11.78,14.58-15.58,6.2-3.8,13.21-5.7,21.03-5.7s14.66,1.84,20.86,5.53c6.2,3.69,11.06,8.8,14.58,15.33,3.52,6.53,5.28,14.05,5.28,22.54v1.51h-77.92v-4.52h74.9l-2.18,2.68c0-7.26-1.54-13.77-4.61-19.52-3.07-5.75-7.29-10.28-12.65-13.57-5.36-3.29-11.45-4.94-18.27-4.94s-12.9,1.65-18.27,4.94c-5.36,3.3-9.58,7.82-12.65,13.57-3.07,5.75-4.61,12.32-4.61,19.69v1.01c0,7.6,1.68,14.33,5.03,20.19,3.35,5.87,7.93,10.45,13.74,13.74,5.81,3.3,12.46,4.94,19.94,4.94,5.7,0,11.09-1.06,16.17-3.18,5.08-2.12,9.3-5.36,12.65-9.72l3.52,3.69c-3.91,4.69-8.69,8.24-14.33,10.64-5.64,2.4-11.65,3.6-18.01,3.6Z"/>
    <path d="m194.55,106.43l35.86-46.25-.17,2.35-33.85-43.07h6.54l30.83,39.55h-2.35l30.67-39.55h6.37l-34.02,43.74.17-3.18,36.36,46.42h-6.87l-32.51-42.23,1.84.17-32.34,42.06h-6.53Z"/>
    <path d="m278.84,24.32v-4.86h50.61v4.86h-50.61Zm38.54,82.61c-7.15,0-12.63-2.01-16.42-6.03-3.8-4.02-5.7-9.44-5.7-16.25V.36h5.53v83.45c0,5.92,1.45,10.45,4.36,13.57,2.9,3.13,7.15,4.69,12.74,4.69s10.39-1.73,14.08-5.19l2.85,4.02c-2.12,2.01-4.75,3.52-7.88,4.52-3.13,1.01-6.31,1.51-9.55,1.51Z"/>
    <path d="m359.44,106.43V19.46h5.36v23.96l-.5-1.51c2.35-7.26,6.45-12.93,12.32-17.01,5.87-4.08,13.21-6.12,22.04-6.12v5.53h-1.51c-10.05,0-17.93,3.18-23.63,9.55-5.7,6.37-8.55,15.14-8.55,26.31v46.25h-5.53Z"/>
    <path d="m454.95,106.93c-8.16,0-15.44-1.87-21.87-5.61-6.42-3.74-11.51-8.97-15.25-15.67-3.74-6.7-5.61-14.3-5.61-22.79s1.87-16.2,5.61-22.79c3.74-6.59,8.82-11.78,15.25-15.58,6.42-3.8,13.71-5.7,21.87-5.7s15.47,1.9,21.95,5.7c6.48,3.8,11.56,8.99,15.25,15.58,3.69,6.59,5.53,14.19,5.53,22.79s-1.84,16.09-5.53,22.79c-3.69,6.7-8.77,11.93-15.25,15.67-6.48,3.74-13.8,5.61-21.95,5.61Zm0-5.03c7.15,0,13.55-1.65,19.19-4.94,5.64-3.29,10.05-7.9,13.24-13.82,3.18-5.92,4.78-12.68,4.78-20.28s-1.59-14.49-4.78-20.36c-3.18-5.86-7.6-10.42-13.24-13.66-5.64-3.24-12.04-4.86-19.19-4.86s-13.35,1.62-18.94,4.86c-5.59,3.24-10.03,7.79-13.32,13.66-3.3,5.87-4.94,12.65-4.94,20.36s1.65,14.36,4.94,20.28c3.29,5.92,7.73,10.53,13.32,13.82,5.58,3.3,11.9,4.94,18.94,4.94Z"/>
    <path d="m557.84,106.93c-8.16,0-15.44-1.87-21.87-5.61-6.42-3.74-11.51-8.97-15.25-15.67-3.74-6.7-5.61-14.3-5.61-22.79s1.87-16.2,5.61-22.79c3.74-6.59,8.82-11.78,15.25-15.58,6.42-3.8,13.71-5.7,21.87-5.7s15.47,1.9,21.95,5.7c6.48,3.8,11.56,8.99,15.25,15.58,3.69,6.59,5.53,14.19,5.53,22.79s-1.84,16.09-5.53,22.79c-3.69,6.7-8.77,11.93-15.25,15.67-6.48,3.74-13.8,5.61-21.95,5.61Zm0-5.03c7.15,0,13.55-1.65,19.19-4.94,5.64-3.29,10.05-7.9,13.24-13.82,3.18-5.92,4.78-12.68,4.78-20.28s-1.59-14.49-4.78-20.36c-3.18-5.86-7.6-10.42-13.24-13.66-5.64-3.24-12.04-4.86-19.19-4.86s-13.35,1.62-18.94,4.86c-5.59,3.24-10.03,7.79-13.32,13.66-3.3,5.87-4.94,12.65-4.94,20.36s1.65,14.36,4.94,20.28c3.29,5.92,7.73,10.53,13.32,13.82,5.58,3.3,11.9,4.94,18.94,4.94Z"/>
    <path d="m736.14,18.79c7.04,0,13.1,1.4,18.18,4.19,5.08,2.79,9.02,6.9,11.81,12.32,2.79,5.42,4.19,12.09,4.19,20.02v51.11h-5.53v-50.77c0-10.39-2.54-18.27-7.62-23.63-5.08-5.36-12.21-8.04-21.37-8.04-6.93,0-12.96,1.45-18.1,4.36-5.14,2.91-9.08,7.04-11.81,12.4-2.74,5.36-4.11,11.62-4.11,18.77v46.92h-5.53v-50.77c0-10.39-2.51-18.27-7.54-23.63-5.03-5.36-12.12-8.04-21.28-8.04-7.04,0-13.1,1.45-18.18,4.36-5.08,2.91-8.99,7.04-11.73,12.4-2.74,5.36-4.11,11.62-4.11,18.77v46.92h-5.53V19.46h5.36v24.3l-.67-1.51c2.57-7.15,6.87-12.85,12.9-17.09,6.03-4.24,13.46-6.37,22.29-6.37s16.34,2.24,22.2,6.7c5.86,4.47,9.52,11.17,10.98,20.11l-1.51-.67c2.23-7.71,6.54-13.99,12.9-18.85,6.37-4.86,14.3-7.29,23.8-7.29Z"/>
    <path d="m787.92,110.79v-4.36h83.79v4.36h-83.79Z"/>
  </g>
  <circle class="cls-1" cx="852.8" cy="71.59" r="18.91"/>
</svg>