<?xml version="1.0" encoding="UTF-8"?>
<svg id="Layer_1" data-name="Layer 1" xmlns="http://www.w3.org/2000/svg" viewBox="0 0 871.7 881.24">
  <path d="m833.93,386.46c-9.47-17.43-13.91-45.67,2.91-66.83,5.61-7.05,12.72-12.24,20.49-15.71,8.75-3.9,14.38-12.59,14.38-22.17V61.02c0-33.7-27.32-61.02-61.02-61.02H56.66C25.37,0,0,25.37,0,56.66v797.45c0,29.6,42.63,34.07,48.76,5.1L121.6,232.41c7.99-37.76,54.67-51.61,81.96-24.32l552.41,649.42c39.15,47.07,115.73,19.38,115.73-41.84v-382.14c0-8.35-4.33-16.14-11.51-20.4-10.67-6.34-20.15-15.42-26.26-26.67Zm-410.64-61c-44.92-31.31-74.14-90.68-55.82-142.29,22.14-62.39,85.69-92.59,155.37-103.04,65.3-9.79,135.99-2.23,183.01,12.45,26.44,8.25,53.46,20.52,68.85,43.55,17.47,26.15,16.2,60.54,9.56,91.28-9.3,43.02-29.35,85.8-65.19,111.36-39.38,28.09-91.05,31.17-139.37,29.04-54.71-2.4-111.48-11.04-156.41-42.36Zm374.42,359.19c-.61,16.66-2.08,33.46-7.18,49.33-2.85,8.87-8.71,18.72-18.02,18.93-6.53.15-12.02-4.63-16.66-9.23-29.65-29.34-54.12-63.84-80.11-96.36-26.82-33.56-53.57-67.43-75.23-104.64-5.26-9.03-10.32-18.61-11.07-29.04-.27-3.71.02-7.34.76-10.89,2.83-13.6,12.32-25.86,22.79-35.51,26.62-24.55,62.12-39.27,98.3-40.75,20.32-.83,42.38,3.21,56.29,18.04,11.6,12.36,15.49,29.93,18.09,46.68,4.7,30.21,6.73,60.77,8.76,91.28,2.26,34.01,4.53,68.09,3.29,102.16Z"/>
</svg>