<?xml version="1.0" encoding="UTF-8"?>
<svg id="Layer_1" data-name="Layer 1" xmlns="http://www.w3.org/2000/svg" viewBox="0 0 872.73 110.56">
  <defs>
    <style>
      .cls-1 {
        fill: #fff;
      }

      .cls-2 {
        fill: red;
      }
    </style>
  </defs>
  <g>
    <path class="cls-1" d="m41.1,18.46c7.16,0,13.34,1.4,18.54,4.19,5.2,2.8,9.25,6.91,12.16,12.33,2.91,5.43,4.36,12.11,4.36,20.05v51.17h-5.54v-50.83c0-10.4-2.63-18.29-7.89-23.65-5.26-5.37-12.64-8.05-22.15-8.05-7.27,0-13.53,1.46-18.79,4.36-5.26,2.91-9.29,7.05-12.08,12.42-2.8,5.37-4.19,11.63-4.19,18.79v46.97H0V19.13h5.37v24.49l-.67-1.51c2.68-7.27,7.13-13.03,13.34-17.28,6.21-4.25,13.9-6.37,23.07-6.37Z"/>
    <path class="cls-1" d="m146.63,106.7c-8.61,0-16.22-1.87-22.82-5.62-6.6-3.75-11.8-8.98-15.6-15.69-3.8-6.71-5.7-14.32-5.7-22.82s1.76-16.22,5.28-22.82c3.52-6.6,8.39-11.8,14.6-15.6,6.21-3.8,13.22-5.7,21.06-5.7s14.68,1.84,20.89,5.54c6.21,3.69,11.07,8.81,14.6,15.35,3.52,6.54,5.28,14.07,5.28,22.56v1.51h-78.01v-4.53h74.99l-2.18,2.68c0-7.27-1.54-13.78-4.61-19.54-3.08-5.76-7.3-10.29-12.67-13.59-5.37-3.3-11.47-4.95-18.29-4.95s-12.92,1.65-18.29,4.95c-5.37,3.3-9.59,7.83-12.67,13.59-3.08,5.76-4.61,12.33-4.61,19.71v1.01c0,7.61,1.68,14.34,5.03,20.22,3.36,5.87,7.94,10.46,13.76,13.76,5.81,3.3,12.47,4.95,19.96,4.95,5.7,0,11.1-1.06,16.19-3.19,5.09-2.12,9.31-5.37,12.67-9.73l3.52,3.69c-3.92,4.7-8.7,8.25-14.34,10.65-5.65,2.41-11.66,3.61-18.04,3.61Z"/>
    <path class="cls-1" d="m194.78,106.2l35.9-46.3-.17,2.35-33.89-43.12h6.54l30.87,39.59h-2.35l30.7-39.59h6.38l-34.06,43.79.17-3.19,36.41,46.47h-6.88l-32.55-42.28,1.85.17-32.38,42.11h-6.54Z"/>
    <path class="cls-1" d="m279.16,23.99v-4.86h50.67v4.86h-50.67Zm38.59,82.71c-7.16,0-12.64-2.01-16.44-6.04-3.8-4.03-5.7-9.45-5.7-16.27V0h5.54v83.55c0,5.93,1.45,10.46,4.36,13.59,2.91,3.13,7.16,4.7,12.75,4.7s10.4-1.73,14.09-5.2l2.85,4.03c-2.13,2.01-4.75,3.52-7.88,4.53-3.13,1.01-6.32,1.51-9.56,1.51Z"/>
    <path class="cls-1" d="m359.86,106.2V19.13h5.37v23.99l-.5-1.51c2.35-7.27,6.46-12.94,12.33-17.03,5.87-4.08,13.22-6.12,22.06-6.12v5.54h-1.51c-10.07,0-17.95,3.19-23.66,9.56-5.7,6.38-8.56,15.16-8.56,26.34v46.3h-5.54Z"/>
    <path class="cls-1" d="m455.49,106.7c-8.17,0-15.46-1.87-21.89-5.62-6.43-3.75-11.52-8.98-15.27-15.69-3.75-6.71-5.62-14.32-5.62-22.82s1.87-16.22,5.62-22.82c3.75-6.6,8.83-11.8,15.27-15.6,6.43-3.8,13.73-5.7,21.89-5.7s15.49,1.9,21.98,5.7c6.49,3.8,11.58,9,15.27,15.6,3.69,6.6,5.54,14.21,5.54,22.82s-1.84,16.11-5.54,22.82c-3.69,6.71-8.78,11.94-15.27,15.69-6.49,3.75-13.81,5.62-21.98,5.62Zm0-5.03c7.16,0,13.56-1.65,19.21-4.95,5.65-3.3,10.07-7.91,13.25-13.84,3.19-5.93,4.78-12.69,4.78-20.3s-1.59-14.51-4.78-20.38c-3.19-5.87-7.61-10.43-13.25-13.67-5.65-3.24-12.05-4.86-19.21-4.86s-13.37,1.62-18.96,4.86c-5.59,3.25-10.04,7.8-13.34,13.67-3.3,5.87-4.95,12.67-4.95,20.38s1.65,14.37,4.95,20.3c3.3,5.93,7.74,10.54,13.34,13.84,5.59,3.3,11.91,4.95,18.96,4.95Z"/>
    <path class="cls-1" d="m558.5,106.7c-8.17,0-15.46-1.87-21.89-5.62-6.43-3.75-11.52-8.98-15.27-15.69-3.75-6.71-5.62-14.32-5.62-22.82s1.87-16.22,5.62-22.82c3.75-6.6,8.83-11.8,15.27-15.6,6.43-3.8,13.73-5.7,21.89-5.7s15.49,1.9,21.98,5.7c6.49,3.8,11.58,9,15.27,15.6,3.69,6.6,5.54,14.21,5.54,22.82s-1.84,16.11-5.54,22.82c-3.69,6.71-8.78,11.94-15.27,15.69-6.49,3.75-13.81,5.62-21.98,5.62Zm0-5.03c7.16,0,13.56-1.65,19.21-4.95,5.65-3.3,10.07-7.91,13.25-13.84,3.19-5.93,4.78-12.69,4.78-20.3s-1.59-14.51-4.78-20.38c-3.19-5.87-7.61-10.43-13.25-13.67-5.65-3.24-12.05-4.86-19.21-4.86s-13.37,1.62-18.96,4.86c-5.59,3.25-10.04,7.8-13.34,13.67-3.3,5.87-4.95,12.67-4.95,20.38s1.65,14.37,4.95,20.3c3.3,5.93,7.74,10.54,13.34,13.84,5.59,3.3,11.91,4.95,18.96,4.95Z"/>
    <path class="cls-1" d="m737,18.46c7.05,0,13.11,1.4,18.2,4.19,5.09,2.8,9.03,6.91,11.83,12.33,2.79,5.43,4.19,12.11,4.19,20.05v51.17h-5.54v-50.83c0-10.4-2.55-18.29-7.63-23.65-5.09-5.37-12.22-8.05-21.39-8.05-6.94,0-12.98,1.46-18.12,4.36-5.15,2.91-9.09,7.05-11.83,12.42-2.74,5.37-4.11,11.63-4.11,18.79v46.97h-5.54v-50.83c0-10.4-2.52-18.29-7.55-23.65-5.03-5.37-12.14-8.05-21.31-8.05-7.05,0-13.11,1.46-18.2,4.36-5.09,2.91-9,7.05-11.74,12.42-2.74,5.37-4.11,11.63-4.11,18.79v46.97h-5.54V19.13h5.37v24.33l-.67-1.51c2.57-7.16,6.88-12.86,12.92-17.11,6.04-4.25,13.48-6.37,22.31-6.37s16.36,2.24,22.23,6.71c5.87,4.47,9.53,11.19,10.99,20.13l-1.51-.67c2.24-7.72,6.54-14.01,12.92-18.87,6.37-4.87,14.32-7.3,23.82-7.3Z"/>
    <path class="cls-1" d="m788.84,110.56v-4.36h83.88v4.36h-83.88Z"/>
  </g>
  <circle class="cls-2" cx="853.8" cy="71.32" r="18.93"/>
</svg>