<?xml version="1.0" encoding="UTF-8"?>
<svg id="Layer_1" data-name="Layer 1" xmlns="http://www.w3.org/2000/svg" viewBox="0 0 871.7 1080">
  <defs>
    <style>
      .cls-1 {
        fill: red;
      }
    </style>
  </defs>
  <g>
    <g>
      <path d="m41.06,987.28c7.15,0,13.32,1.4,18.52,4.19,5.19,2.79,9.24,6.9,12.15,12.32,2.9,5.42,4.36,12.09,4.36,20.02v51.11h-5.53v-50.77c0-10.39-2.63-18.27-7.88-23.63-5.25-5.36-12.63-8.04-22.12-8.04-7.26,0-13.52,1.45-18.77,4.36-5.25,2.91-9.27,7.04-12.07,12.4-2.79,5.36-4.19,11.62-4.19,18.77v46.92H0v-86.97h5.36v24.47l-.67-1.51c2.68-7.26,7.12-13.01,13.32-17.26,6.2-4.24,13.88-6.37,23.04-6.37Z"/>
      <path d="m146.46,1075.42c-8.6,0-16.2-1.87-22.79-5.61-6.59-3.74-11.79-8.97-15.58-15.67-3.8-6.7-5.7-14.3-5.7-22.79s1.76-16.2,5.28-22.79c3.52-6.59,8.38-11.78,14.58-15.58,6.2-3.8,13.21-5.7,21.03-5.7s14.66,1.84,20.86,5.53c6.2,3.69,11.06,8.8,14.58,15.33,3.52,6.53,5.28,14.05,5.28,22.54v1.51h-77.92v-4.52h74.9l-2.18,2.68c0-7.26-1.54-13.77-4.61-19.52-3.07-5.75-7.29-10.28-12.65-13.57-5.36-3.29-11.45-4.94-18.27-4.94s-12.9,1.65-18.27,4.94c-5.36,3.3-9.58,7.82-12.65,13.57-3.07,5.75-4.61,12.32-4.61,19.69v1.01c0,7.6,1.68,14.33,5.03,20.19,3.35,5.87,7.93,10.45,13.74,13.74,5.81,3.3,12.46,4.94,19.94,4.94,5.7,0,11.09-1.06,16.17-3.18,5.08-2.12,9.3-5.36,12.65-9.72l3.52,3.69c-3.91,4.69-8.69,8.24-14.33,10.64-5.64,2.4-11.65,3.6-18.01,3.6Z"/>
      <path d="m194.55,1074.92l35.86-46.25-.17,2.35-33.85-43.07h6.54l30.83,39.55h-2.35l30.67-39.55h6.37l-34.02,43.74.17-3.18,36.36,46.42h-6.87l-32.51-42.23,1.84.17-32.34,42.06h-6.53Z"/>
      <path d="m278.84,992.81v-4.86h50.61v4.86h-50.61Zm38.54,82.61c-7.15,0-12.63-2.01-16.42-6.03-3.8-4.02-5.7-9.44-5.7-16.25v-84.29h5.53v83.45c0,5.92,1.45,10.45,4.36,13.57,2.9,3.13,7.15,4.69,12.74,4.69s10.39-1.73,14.08-5.19l2.85,4.02c-2.12,2.01-4.75,3.52-7.88,4.52-3.13,1.01-6.31,1.51-9.55,1.51Z"/>
      <path d="m359.44,1074.92v-86.97h5.36v23.96l-.5-1.51c2.35-7.26,6.45-12.93,12.32-17.01,5.87-4.08,13.21-6.12,22.04-6.12v5.53h-1.51c-10.05,0-17.93,3.18-23.63,9.55-5.7,6.37-8.55,15.14-8.55,26.31v46.25h-5.53Z"/>
      <path d="m454.95,1075.42c-8.16,0-15.44-1.87-21.87-5.61-6.42-3.74-11.51-8.97-15.25-15.67-3.74-6.7-5.61-14.3-5.61-22.79s1.87-16.2,5.61-22.79c3.74-6.59,8.82-11.78,15.25-15.58,6.42-3.8,13.71-5.7,21.87-5.7s15.47,1.9,21.95,5.7c6.48,3.8,11.56,8.99,15.25,15.58,3.69,6.59,5.53,14.19,5.53,22.79s-1.84,16.09-5.53,22.79c-3.69,6.7-8.77,11.93-15.25,15.67-6.48,3.74-13.8,5.61-21.95,5.61Zm0-5.03c7.15,0,13.55-1.65,19.19-4.94,5.64-3.29,10.05-7.9,13.24-13.82,3.18-5.92,4.78-12.68,4.78-20.28s-1.59-14.49-4.78-20.36c-3.18-5.86-7.6-10.42-13.24-13.66-5.64-3.24-12.04-4.86-19.19-4.86s-13.35,1.62-18.94,4.86c-5.59,3.24-10.03,7.79-13.32,13.66-3.3,5.87-4.94,12.65-4.94,20.36s1.65,14.36,4.94,20.28c3.29,5.92,7.73,10.53,13.32,13.82,5.58,3.3,11.9,4.94,18.94,4.94Z"/>
      <path d="m557.84,1075.42c-8.16,0-15.44-1.87-21.87-5.61-6.42-3.74-11.51-8.97-15.25-15.67-3.74-6.7-5.61-14.3-5.61-22.79s1.87-16.2,5.61-22.79c3.74-6.59,8.82-11.78,15.25-15.58,6.42-3.8,13.71-5.7,21.87-5.7s15.47,1.9,21.95,5.7c6.48,3.8,11.56,8.99,15.25,15.58,3.69,6.59,5.53,14.19,5.53,22.79s-1.84,16.09-5.53,22.79c-3.69,6.7-8.77,11.93-15.25,15.67-6.48,3.74-13.8,5.61-21.95,5.61Zm0-5.03c7.15,0,13.55-1.65,19.19-4.94,5.64-3.29,10.05-7.9,13.24-13.82,3.18-5.92,4.78-12.68,4.78-20.28s-1.59-14.49-4.78-20.36c-3.18-5.86-7.6-10.42-13.24-13.66-5.64-3.24-12.04-4.86-19.19-4.86s-13.35,1.62-18.94,4.86c-5.59,3.24-10.03,7.79-13.32,13.66-3.3,5.87-4.94,12.65-4.94,20.36s1.65,14.36,4.94,20.28c3.29,5.92,7.73,10.53,13.32,13.82,5.58,3.3,11.9,4.94,18.94,4.94Z"/>
      <path d="m736.14,987.28c7.04,0,13.1,1.4,18.18,4.19,5.08,2.79,9.02,6.9,11.81,12.32,2.79,5.42,4.19,12.09,4.19,20.02v51.11h-5.53v-50.77c0-10.39-2.54-18.27-7.62-23.63-5.08-5.36-12.21-8.04-21.37-8.04-6.93,0-12.96,1.45-18.1,4.36-5.14,2.91-9.08,7.04-11.81,12.4-2.74,5.36-4.11,11.62-4.11,18.77v46.92h-5.53v-50.77c0-10.39-2.51-18.27-7.54-23.63-5.03-5.36-12.12-8.04-21.28-8.04-7.04,0-13.1,1.45-18.18,4.36-5.08,2.91-8.99,7.04-11.73,12.4-2.74,5.36-4.11,11.62-4.11,18.77v46.92h-5.53v-86.97h5.36v24.3l-.67-1.51c2.57-7.15,6.87-12.85,12.9-17.09,6.03-4.24,13.46-6.37,22.29-6.37s16.34,2.24,22.2,6.7c5.86,4.47,9.52,11.17,10.98,20.11l-1.51-.67c2.23-7.71,6.54-13.99,12.9-18.85,6.37-4.86,14.3-7.29,23.8-7.29Z"/>
      <path d="m787.92,1079.28v-4.36h83.79v4.36h-83.79Z"/>
    </g>
    <circle class="cls-1" cx="852.8" cy="1040.08" r="18.91"/>
  </g>
  <path d="m833.93,386.46c-9.47-17.43-13.91-45.67,2.91-66.83,5.61-7.05,12.72-12.24,20.49-15.71,8.75-3.9,14.38-12.59,14.38-22.17V61.02c0-33.7-27.32-61.02-61.02-61.02H56.66C25.37,0,0,25.37,0,56.66v797.45c0,29.6,42.63,34.07,48.76,5.1L121.6,232.41c7.99-37.76,54.67-51.61,81.96-24.32l552.41,649.42c39.15,47.07,115.73,19.38,115.73-41.84v-382.14c0-8.35-4.33-16.14-11.51-20.4-10.67-6.34-20.15-15.42-26.26-26.67Zm-410.64-61c-44.92-31.31-74.14-90.68-55.82-142.29,22.14-62.39,85.69-92.59,155.37-103.04,65.3-9.79,135.99-2.23,183.01,12.45,26.44,8.25,53.46,20.52,68.85,43.55,17.47,26.15,16.2,60.54,9.56,91.28-9.3,43.02-29.35,85.8-65.19,111.36-39.38,28.09-91.05,31.17-139.37,29.04-54.71-2.4-111.48-11.04-156.41-42.36Zm374.42,359.19c-.61,16.66-2.08,33.46-7.18,49.33-2.85,8.87-8.71,18.72-18.02,18.93-6.53.15-12.02-4.63-16.66-9.23-29.65-29.34-54.12-63.84-80.11-96.36-26.82-33.56-53.57-67.43-75.23-104.64-5.26-9.03-10.32-18.61-11.07-29.04-.27-3.71.02-7.34.76-10.89,2.83-13.6,12.32-25.86,22.79-35.51,26.62-24.55,62.12-39.27,98.3-40.75,20.32-.83,42.38,3.21,56.29,18.04,11.6,12.36,15.49,29.93,18.09,46.68,4.7,30.21,6.73,60.77,8.76,91.28,2.26,34.01,4.53,68.09,3.29,102.16Z"/>
</svg>