<?xml version="1.0" encoding="UTF-8"?>
<svg id="Layer_1" data-name="Layer 1" xmlns="http://www.w3.org/2000/svg" viewBox="0 0 1960.12 424.16">
  <defs>
    <style>
      .cls-1 {
        fill: red;
      }
    </style>
  </defs>
  <g>
    <g>
      <path d="m626.24,153.02c11.48,0,21.39,2.24,29.73,6.73,8.34,4.49,14.84,11.08,19.51,19.78,4.66,8.7,7,19.42,7,32.16v82.07h-8.88v-81.54c0-16.68-4.22-29.33-12.65-37.94-8.43-8.61-20.27-12.92-35.52-12.92-11.66,0-21.71,2.33-30.14,7-8.43,4.67-14.89,11.3-19.38,19.91-4.49,8.61-6.73,18.66-6.73,30.14v75.35h-8.88v-139.66h8.61v39.29l-1.08-2.42c4.3-11.66,11.44-20.9,21.39-27.72,9.96-6.81,22.29-10.22,37-10.22Z"/>
      <path d="m795.5,294.56c-13.82,0-26.01-3-36.6-9.01-10.59-6.01-18.93-14.4-25.03-25.16-6.1-10.76-9.15-22.96-9.15-36.6s2.83-26.01,8.48-36.6c5.65-10.58,13.45-18.92,23.41-25.02,9.96-6.1,21.21-9.15,33.77-9.15s23.55,2.96,33.5,8.88c9.96,5.92,17.76,14.13,23.41,24.62,5.65,10.49,8.48,22.56,8.48,36.19v2.42h-125.13v-7.27h120.28l-3.5,4.3c0-11.66-2.47-22.11-7.4-31.35-4.94-9.24-11.71-16.5-20.32-21.8-8.61-5.29-18.39-7.94-29.33-7.94s-20.72,2.65-29.33,7.94c-8.61,5.29-15.38,12.56-20.32,21.8-4.94,9.24-7.4,19.78-7.4,31.62v1.61c0,12.2,2.69,23.01,8.07,32.42,5.38,9.42,12.74,16.78,22.07,22.07,9.33,5.29,20,7.94,32.02,7.94,9.15,0,17.8-1.7,25.97-5.11,8.16-3.41,14.94-8.61,20.32-15.61l5.65,5.92c-6.28,7.53-13.95,13.23-23.01,17.09-9.06,3.86-18.7,5.79-28.93,5.79Z"/>
      <path d="m872.72,293.75l57.59-74.27-.27,3.77-54.36-69.16h10.49l49.51,63.51h-3.77l49.24-63.51h10.23l-54.63,70.23.27-5.11,58.39,74.54h-11.03l-52.2-67.81,2.96.27-51.94,67.54h-10.49Z"/>
      <path d="m1008.08,161.9v-7.8h81.27v7.8h-81.27Zm61.89,132.66c-11.48,0-20.27-3.23-26.37-9.69-6.1-6.46-9.15-15.16-9.15-26.1V123.42h8.88v134.01c0,9.51,2.33,16.78,7,21.8,4.66,5.02,11.48,7.53,20.45,7.53s16.68-2.78,22.6-8.34l4.57,6.46c-3.41,3.23-7.63,5.65-12.65,7.27-5.02,1.61-10.14,2.42-15.34,2.42Z"/>
      <path d="m1137.51,293.75v-139.66h8.61v38.48l-.81-2.42c3.77-11.66,10.36-20.76,19.78-27.31,9.42-6.55,21.21-9.82,35.39-9.82v8.88h-2.42c-16.15,0-28.79,5.11-37.94,15.34-9.15,10.23-13.72,24.31-13.72,42.25v74.27h-8.88Z"/>
      <path d="m1290.89,294.56c-13.1,0-24.8-3-35.12-9.01-10.32-6.01-18.48-14.4-24.49-25.16-6.01-10.76-9.01-22.96-9.01-36.6s3-26.01,9.01-36.6c6.01-10.58,14.17-18.92,24.49-25.02,10.31-6.1,22.02-9.15,35.12-9.15s24.85,3.05,35.25,9.15c10.4,6.1,18.57,14.44,24.49,25.02,5.92,10.59,8.88,22.78,8.88,36.6s-2.96,25.83-8.88,36.6c-5.92,10.76-14.08,19.15-24.49,25.16-10.4,6.01-22.16,9.01-35.25,9.01Zm0-8.07c11.48,0,21.75-2.64,30.81-7.94,9.06-5.29,16.15-12.69,21.26-22.2,5.11-9.51,7.67-20.36,7.67-32.56s-2.56-23.28-7.67-32.69c-5.11-9.42-12.2-16.72-21.26-21.93-9.06-5.2-19.33-7.8-30.81-7.8s-21.44,2.6-30.41,7.8c-8.97,5.21-16.1,12.51-21.39,21.93-5.29,9.42-7.94,20.32-7.94,32.69s2.64,23.06,7.94,32.56c5.29,9.51,12.42,16.91,21.39,22.2,8.97,5.29,19.1,7.94,30.41,7.94Z"/>
      <path d="m1456.11,294.56c-13.1,0-24.8-3-35.12-9.01-10.32-6.01-18.48-14.4-24.49-25.16-6.01-10.76-9.01-22.96-9.01-36.6s3-26.01,9.01-36.6c6.01-10.58,14.17-18.92,24.49-25.02,10.31-6.1,22.02-9.15,35.12-9.15s24.85,3.05,35.25,9.15c10.4,6.1,18.57,14.44,24.49,25.02,5.92,10.59,8.88,22.78,8.88,36.6s-2.96,25.83-8.88,36.6c-5.92,10.76-14.08,19.15-24.49,25.16-10.4,6.01-22.16,9.01-35.25,9.01Zm0-8.07c11.48,0,21.75-2.64,30.81-7.94,9.06-5.29,16.15-12.69,21.26-22.2,5.11-9.51,7.67-20.36,7.67-32.56s-2.56-23.28-7.67-32.69c-5.11-9.42-12.2-16.72-21.26-21.93-9.06-5.2-19.33-7.8-30.81-7.8s-21.44,2.6-30.41,7.8c-8.97,5.21-16.1,12.51-21.39,21.93-5.29,9.42-7.94,20.32-7.94,32.69s2.64,23.06,7.94,32.56c5.29,9.51,12.42,16.91,21.39,22.2,8.97,5.29,19.1,7.94,30.41,7.94Z"/>
      <path d="m1742.43,153.02c11.3,0,21.03,2.24,29.19,6.73,8.16,4.49,14.49,11.08,18.97,19.78,4.48,8.7,6.73,19.42,6.73,32.16v82.07h-8.88v-81.54c0-16.68-4.08-29.33-12.24-37.94-8.17-8.61-19.6-12.92-34.31-12.92-11.13,0-20.81,2.33-29.06,7-8.25,4.67-14.58,11.3-18.97,19.91-4.4,8.61-6.59,18.66-6.59,30.14v75.35h-8.88v-81.54c0-16.68-4.04-29.33-12.11-37.94-8.07-8.61-19.47-12.92-34.18-12.92-11.3,0-21.03,2.33-29.19,7-8.17,4.67-14.44,11.3-18.84,19.91-4.4,8.61-6.59,18.66-6.59,30.14v75.35h-8.88v-139.66h8.61v39.02l-1.08-2.42c4.12-11.48,11.03-20.63,20.72-27.45,9.69-6.81,21.62-10.22,35.79-10.22s26.24,3.59,35.66,10.76c9.42,7.18,15.29,17.94,17.62,32.29l-2.42-1.08c3.59-12.38,10.49-22.47,20.72-30.27,10.22-7.8,22.96-11.7,38.21-11.7Z"/>
      <path d="m1825.58,300.75v-7h134.55v7h-134.55Z"/>
    </g>
    <circle class="cls-1" cx="1929.76" cy="237.81" r="30.36"/>
  </g>
  <path d="m401.39,186.01c-4.56-8.39-6.69-21.98,1.4-32.17,2.7-3.39,6.12-5.89,9.86-7.56,4.21-1.88,6.92-6.06,6.92-10.67V29.37c0-16.22-13.15-29.37-29.37-29.37H27.27C12.21,0,0,12.21,0,27.27v383.84c0,14.25,20.52,16.4,23.47,2.46L58.53,111.87c3.85-18.17,26.31-24.84,39.45-11.7l265.89,312.59c18.85,22.66,55.7,9.33,55.7-20.14v-183.94c0-4.02-2.09-7.77-5.54-9.82-5.14-3.05-9.7-7.42-12.64-12.84Zm-197.65-29.36c-21.62-15.07-35.68-43.65-26.87-68.49,10.66-30.03,41.24-44.57,74.78-49.6,31.43-4.71,65.45-1.07,88.09,5.99,12.73,3.97,25.73,9.88,33.14,20.96,8.41,12.59,7.8,29.14,4.6,43.94-4.48,20.71-14.13,41.3-31.38,53.6-18.95,13.52-43.83,15-67.08,13.98-26.33-1.16-53.66-5.32-75.28-20.39Zm180.22,172.89c-.29,8.02-1,16.11-3.46,23.74-1.37,4.27-4.19,9.01-8.67,9.11-3.14.07-5.79-2.23-8.02-4.44-14.27-14.12-26.05-30.73-38.56-46.38-12.91-16.15-25.78-32.46-36.21-50.37-2.53-4.35-4.97-8.96-5.33-13.98-.13-1.78,0-3.53.36-5.24,1.36-6.54,5.93-12.45,10.97-17.09,12.81-11.82,29.9-18.9,47.32-19.61,9.78-.4,20.4,1.55,27.1,8.68,5.58,5.95,7.45,14.41,8.71,22.47,2.26,14.54,3.24,29.25,4.22,43.93,1.09,16.37,2.18,32.78,1.58,49.17Z"/>
</svg>