<?xml version="1.0" encoding="UTF-8"?>
<svg id="Layer_1" data-name="Layer 1" xmlns="http://www.w3.org/2000/svg" viewBox="0 0 872.73 882.27">
  <defs>
    <style>
      .cls-1 {
        fill: #fff;
      }
    </style>
  </defs>
  <path class="cls-1" d="m834.91,386.91c-9.48-17.45-13.92-45.73,2.91-66.91,5.61-7.06,12.74-12.26,20.51-15.72,8.76-3.91,14.4-12.61,14.4-22.2V61.09c0-33.74-27.35-61.09-61.09-61.09H56.73C25.4,0,0,25.4,0,56.73v798.39c0,29.64,42.68,34.11,48.82,5.11L121.74,232.69c8-37.8,54.74-51.67,82.06-24.35l553.06,650.19c39.2,47.12,115.87,19.41,115.87-41.89v-382.59c0-8.36-4.34-16.16-11.52-20.43-10.69-6.35-20.17-15.44-26.29-26.7Zm-411.12-61.08c-44.98-31.35-74.22-90.78-55.89-142.46,22.17-62.46,85.79-92.7,155.55-103.16,65.38-9.8,136.15-2.23,183.23,12.46,26.48,8.26,53.52,20.54,68.93,43.6,17.49,26.18,16.22,60.61,9.57,91.39-9.31,43.07-29.39,85.9-65.26,111.49-39.43,28.12-91.16,31.2-139.54,29.08-54.77-2.41-111.62-11.06-156.59-42.41Zm374.86,359.61c-.61,16.68-2.08,33.5-7.19,49.39-2.86,8.88-8.72,18.74-18.04,18.96-6.54.15-12.04-4.64-16.68-9.24-29.68-29.38-54.19-63.92-80.2-96.47-26.85-33.6-53.63-67.51-75.32-104.76-5.27-9.04-10.33-18.63-11.09-29.07-.27-3.71.02-7.35.76-10.9,2.84-13.61,12.33-25.89,22.81-35.55,26.65-24.58,62.19-39.32,98.42-40.8,20.34-.83,42.43,3.21,56.36,18.06,11.61,12.38,15.5,29.97,18.11,46.74,4.7,30.25,6.74,60.84,8.77,91.38,2.27,34.05,4.53,68.17,3.29,102.28Z"/>
</svg>